<svg width="20" height="20" viewBox="0 0 20 20" fill="none" xmlns="http://www.w3.org/2000/svg">
<g clip-path="url(#clip0_29_1288)">
<path d="M5.0615 19.9828L5.42978 19.88C5.51401 19.8565 5.59278 19.8166 5.6616 19.7626C5.73041 19.7086 5.78791 19.6416 5.83082 19.5654C5.87373 19.4892 5.9012 19.4052 5.91167 19.3184C5.92215 19.2316 5.91541 19.1435 5.89184 19.0593L1.68219 3.99483C1.65276 3.88954 1.60288 3.79108 1.5354 3.70507C1.46792 3.61906 1.38415 3.54719 1.28889 3.49355C1.19363 3.43992 1.08874 3.40557 0.980199 3.39248C0.871663 3.37938 0.761611 3.3878 0.656327 3.41724L0.608741 3.43034C0.39618 3.48978 0.215926 3.6312 0.107614 3.82351C-0.000698047 4.01582 -0.0282003 4.24328 0.0311546 4.45586L4.24115 19.5207C4.28869 19.6907 4.40181 19.8349 4.55565 19.9216C4.70949 20.0082 4.89144 20.0302 5.0615 19.9828ZM19.8863 9.45517C18.5513 8.7895 17.3163 7.93984 16.2174 6.93103C16.1721 6.8896 16.1393 6.83628 16.1229 6.77714C16.1064 6.718 16.1069 6.65543 16.1243 6.59655C16.6688 4.53661 17.0731 2.44217 17.3346 0.327585C17.376 -0.0241395 17.1863 -0.127588 16.9863 0.113791C13.0622 4.80689 6.27253 -0.744829 2.23115 3.52069C2.27943 3.61138 2.31771 3.70758 2.34495 3.80689L5.07598 13.5862C9.12426 9.37241 15.8898 14.8897 19.807 10.2069C20.007 9.96552 20.0449 9.52414 19.8863 9.45517Z" fill="#CCFF00"/>
</g>
<defs>
<clipPath id="clip0_29_1288">
<rect width="20" height="20" fill="white"/>
</clipPath>
</defs>
</svg>
